<?xml version="1.0" encoding="UTF-8" standalone="no"?>
<!-- Created with Inkscape (http://www.inkscape.org/) -->

<svg
   width="39.185936mm"
   height="7.5240898mm"
   viewBox="0 0 39.185936 7.5240898"
   version="1.1"
   id="svg5"
   inkscape:version="1.2.2 (732a01da63, 2022-12-09)"
   sodipodi:docname="logonikawa.svg"
   xmlns:inkscape="http://www.inkscape.org/namespaces/inkscape"
   xmlns:sodipodi="http://sodipodi.sourceforge.net/DTD/sodipodi-0.dtd"
   xmlns="http://www.w3.org/2000/svg"
   xmlnsSvg="http://www.w3.org/2000/svg">
  <sodipodi:namedview
     id="namedview7"
     pagecolor="#ffffff"
     bordercolor="#000000"
     borderopacity="0.25"
     inkscape:showpageshadow="2"
     inkscape:pageopacity="0.0"
     inkscape:pagecheckerboard="true"
     inkscape:deskcolor="#d1d1d1"
     inkscape:document-units="mm"
     showgrid="false"
     showborder="true"
     inkscape:zoom="0.78127806"
     inkscape:cx="-58.237908"
     inkscape:cy="119.03572"
     inkscape:window-width="1920"
     inkscape:window-height="1057"
     inkscape:window-x="-8"
     inkscape:window-y="829"
     inkscape:window-maximized="1"
     inkscape:current-layer="layer1" />
  <defs
     id="defs2" />
  <g
     inkscape:label="Layer 1"
     inkscape:groupmode="layer"
     id="layer1"
     transform="translate(-53.656929,-117.10077)">
    <g
       aria-label="NIKAWA
"
       id="text179"
       style="font-size:3.175px;stroke-width:0.264583">
      <path
         d="m 59.339964,124.62486 h -1.317406 l -2.855298,-4.8066 q -0.06615,-0.11024 -0.214974,-0.35829 -0.06615,-0.11024 -0.20395,-0.34727 v 5.51216 h -1.091407 v -7.52409 h 1.499307 l 2.634811,4.43177 q 0.03307,0.0551 0.479558,0.81029 v -5.24206 h 1.069359 z"
         style="font-size:11.2889px;font-family:'Franklin Gothic Medium';-inkscape-font-specification:'Franklin Gothic Medium, ';fill:#ffffff"
         id="path285" />
      <path
         d="m 62.349602,124.62486 h -1.355991 v -7.52409 h 1.355991 z"
         style="font-size:11.2889px;font-family:'Franklin Gothic Medium';-inkscape-font-specification:'Franklin Gothic Medium, ';fill:#ffffff"
         id="path287" />
      <path
         d="m 69.917796,124.62486 h -1.515844 l -1.587502,-3.83095 -1.455209,1.92926 v 1.90169 H 64.00325 v -7.52409 h 1.355991 v 3.95221 q 0.259071,-0.40238 0.374826,-0.55672 l 2.497008,-3.39549 h 1.372528 l -1.78594,2.47496 z"
         style="font-size:11.2889px;font-family:'Franklin Gothic Medium';-inkscape-font-specification:'Franklin Gothic Medium, ';fill:#ffffff"
         id="path289" />
      <path
         d="m 76.835555,124.62486 h -1.449698 l -0.600825,-1.79145 h -2.893883 l -0.589801,1.79145 h -1.157554 l 2.497008,-7.52409 h 1.670184 z m -2.414326,-2.87734 -1.096919,-3.35691 -1.09692,3.35691 z"
         style="font-size:11.2889px;font-family:'Franklin Gothic Medium';-inkscape-font-specification:'Franklin Gothic Medium, ';fill:#ffffff"
         id="path291" />
      <path
         d="m 86.366077,117.10077 -2.011938,7.52409 h -1.422137 l -1.499307,-5.5342 -1.361503,5.5342 h -1.394576 l -2.056035,-7.52409 h 1.438673 l 1.45521,5.48459 1.355991,-5.48459 h 1.372527 l 1.499308,5.48459 1.427649,-5.48459 z"
         style="font-size:11.2889px;font-family:'Franklin Gothic Medium';-inkscape-font-specification:'Franklin Gothic Medium, ';fill:#ffffff"
         id="path293" />
      <path
         d="m 92.842864,124.62486 h -1.449698 l -0.600825,-1.79145 h -2.893883 l -0.589801,1.79145 h -1.157554 l 2.497008,-7.52409 h 1.670184 z m -2.414326,-2.87734 -1.096919,-3.35691 -1.09692,3.35691 z"
         style="font-size:11.2889px;font-family:'Franklin Gothic Medium';-inkscape-font-specification:'Franklin Gothic Medium, ';fill:#ffffff;stroke:none;stroke-width:0.265;stroke-dasharray:none"
         id="path295" />
    </g>
  </g>
</svg>
