<svg width="39.186mm" height="7.5241mm" version="1.1" viewBox="0 0 39.186 7.5241" xmlns="http://www.w3.org/2000/svg" xmlnsSvg="http://www.w3.org/2000/svg">
 <g transform="translate(-53.657 -117.1)">
  <g fill="#fff" stroke-width=".26458" aria-label="NIKAWA ">
   <path d="m59.34 124.62h-1.3174l-2.8553-4.8066q-0.06615-0.11024-0.21497-0.35829-0.06615-0.11024-0.20395-0.34727v5.5122h-1.0914v-7.5241h1.4993l2.6348 4.4318q0.03307 0.0551 0.47956 0.81029v-5.2421h1.0694z"/>
   <path d="m62.35 124.62h-1.356v-7.5241h1.356z"/>
   <path d="m69.918 124.62h-1.5158l-1.5875-3.831-1.4552 1.9293v1.9017h-1.356v-7.5241h1.356v3.9522q0.25907-0.40238 0.37483-0.55672l2.497-3.3955h1.3725l-1.7859 2.475z"/>
   <path d="m76.836 124.62h-1.4497l-0.60082-1.7914h-2.8939l-0.5898 1.7914h-1.1576l2.497-7.5241h1.6702zm-2.4143-2.8773-1.0969-3.3569-1.0969 3.3569z"/>
   <path d="m86.366 117.1-2.0119 7.5241h-1.4221l-1.4993-5.5342-1.3615 5.5342h-1.3946l-2.056-7.5241h1.4387l1.4552 5.4846 1.356-5.4846h1.3725l1.4993 5.4846 1.4276-5.4846z"/>
   <path d="m92.843 124.62h-1.4497l-0.60082-1.7914h-2.8939l-0.5898 1.7914h-1.1576l2.497-7.5241h1.6702zm-2.4143-2.8773-1.0969-3.3569-1.0969 3.3569z"/>
  </g>
 </g>
</svg>
